<?xml version="1.0" encoding="UTF-8"?>
<svg id="Layer_1" data-name="Layer 1" xmlns="http://www.w3.org/2000/svg" version="1.1" viewBox="0 0 500 500">
  <defs>
    <style>
      .cls-1 {
        fill: #0d0d0d;
        stroke-width: 0px;
      }
    </style>
  </defs>
  <path class="cls-1" d="M300.0416249,160.7269397c2.3184709,27.3756031-2.6002611,58.3152587-14.7469843,92.8279565-12.1467232,34.5036525-28.2484425,60.6245733-48.286901,78.3537172-3.0912575-50.8962628-3.2822067-101.7834249-.5818929-152.6797432,2.6912131-17.3473009,7.1279939-31.3214985,13.3014082-41.9316937,6.1642581-10.5919937,13.3014082-16.0926186,21.4022388-16.4744615,16.9563572-.7727866,26.6028165,12.5286216,28.9121311,39.9042247Z"/>
  <path class="cls-1" d="M22.7032843,53.3042617v393.3914767c0,16.9004531,13.7005242,30.6009773,30.6009773,30.6009773h393.3914767c16.9004531,0,30.6009773-13.7005242,30.6009773-30.6009773V53.3042617c0-16.9004531-13.7005242-30.6009773-30.6009773-30.6009773H53.3042617c-16.9004531,0-30.6009773,13.7005242-30.6009773,30.6009773ZM395.469898,201.785794c-4.2549879,25.4481314-11.7648802,47.6232123-22.5569238,66.5070412-14.6560878,25.8390751-33.5399167,45.9866871-56.6787334,60.4427249-23.129716,14.4469926-49.3597348,19.7566128-78.6537089,15.9016693,3.0821013,48.5778474,7.9008361,82.8996515,14.4560378,102.9472662H120.1772279c10.0283022-33.5490174,15.1288272-97.928537,15.3288772-193.1658608.1909492-95.2282231-4.918732-160.9715229-15.3288772-197.211698h131.8593418c-4.6186848,13.8741449-8.2917797,34.3127033-10.9829928,61.2973627,15.4107284-35.4673884,34.1218096-56.0968405,56.0968405-61.8792557,20.8204014-5.4005722,40.2860677-1.6365253,58.4152559,11.2738838,18.1200875,12.928666,30.3668634,32.1033859,36.7220707,57.5424721,6.364308,25.4481314,7.4189404,50.8962628,3.182154,76.3443942Z"/>
</svg>